HIERARCHY
ROOT Root
{
  OFFSET 0.0 0.0 0.0
  CHANNELS 6 Xposition Yposition Zposition Zrotation Yrotation Xrotation
  JOINT Hips
  {
    OFFSET 0.0 100.0 0.0
    CHANNELS 6 Xposition Yposition Zposition Zrotation Yrotation Xrotation
    JOINT Spine1
    {
      OFFSET 5.003913 -0.037094 -0.013727
      CHANNELS 3 Zrotation Yrotation Xrotation
      JOINT Spine2
      {
        OFFSET 7.125363 -1e-06 0.0
        CHANNELS 3 Zrotation Yrotation Xrotation
        JOINT Chest
        {
          OFFSET 7.594027 1e-06 0.0
          CHANNELS 3 Zrotation Yrotation Xrotation
          JOINT Neck1
          {
            OFFSET 26.313086 -0.460272 -0.181672
            CHANNELS 3 Zrotation Yrotation Xrotation
            JOINT Neck2
            {
              OFFSET 8.045911 0.0 0.0
              CHANNELS 3 Zrotation Yrotation Xrotation
              JOINT Head
              {
                OFFSET 6.432774 0.0 0.0
                CHANNELS 3 Zrotation Yrotation Xrotation
                JOINT HeadEnd
                {
                  OFFSET 16.169773 0.06451 0.00362
                  CHANNELS 3 Zrotation Yrotation Xrotation
                }
                JOINT Jaw
                {
                  OFFSET 0.108741 3.12938 0.002639
                  CHANNELS 3 Zrotation Yrotation Xrotation
                }
                JOINT LeftEye
                {
                  OFFSET 4.45173 8.166359 3.206392
                  CHANNELS 3 Zrotation Yrotation Xrotation
                }
                JOINT RightEye
                {
                  OFFSET 4.436895 8.135758 -3.222429
                  CHANNELS 3 Zrotation Yrotation Xrotation
                }
              }
            }
          }
          JOINT LeftShoulder
          {
            OFFSET 23.218927 5.195579 1.621656
            CHANNELS 3 Zrotation Yrotation Xrotation
            JOINT LeftArm
            {
              OFFSET 15.902118 2e-06 -2e-06
              CHANNELS 3 Zrotation Yrotation Xrotation
              JOINT LeftForeArm
              {
                OFFSET 28.739307 0.0 -1e-06
                CHANNELS 3 Zrotation Yrotation Xrotation
                JOINT LeftHand
                {
                  OFFSET 27.093981 -4e-06 0.0
                  CHANNELS 3 Zrotation Yrotation Xrotation
                  JOINT LeftHandThumb1
                  {
                    OFFSET 2.276781 3.380274 0.83384
                    CHANNELS 3 Zrotation Yrotation Xrotation
                    JOINT LeftHandThumb2
                    {
                      OFFSET 4.705309 -1e-06 -1e-06
                      CHANNELS 3 Zrotation Yrotation Xrotation
                      JOINT LeftHandThumb3
                      {
                        OFFSET 2.798515 0.0 3e-06
                        CHANNELS 3 Zrotation Yrotation Xrotation
                        JOINT LeftHandThumbEnd
                        {
                          OFFSET 3.180793 4e-06 -4e-06
                          CHANNELS 3 Zrotation Yrotation Xrotation
                        }
                      }
                    }
                  }
                  JOINT LeftHandIndex1
                  {
                    OFFSET 3.247786 2.352677 0.137192
                    CHANNELS 3 Zrotation Yrotation Xrotation
                    JOINT LeftHandIndex2
                    {
                      OFFSET 6.367095 1e-06 0.0
                      CHANNELS 3 Zrotation Yrotation Xrotation
                      JOINT LeftHandIndex3
                      {
                        OFFSET 3.662364 0.0 0.0
                        CHANNELS 3 Zrotation Yrotation Xrotation
                        JOINT LeftHandIndex4
                        {
                          OFFSET 2.329242 4e-06 -4e-06
                          CHANNELS 3 Zrotation Yrotation Xrotation
                          JOINT LeftHandIndexEnd
                          {
                            OFFSET 2.767823 1e-06 0.0
                            CHANNELS 3 Zrotation Yrotation Xrotation
                          }
                        }
                      }
                    }
                  }
                  JOINT LeftHandMiddle1
                  {
                    OFFSET 3.163612 0.945023 -0.406112
                    CHANNELS 3 Zrotation Yrotation Xrotation
                    JOINT LeftHandMiddle2
                    {
                      OFFSET 6.276789 3e-06 0.0
                      CHANNELS 3 Zrotation Yrotation Xrotation
                      JOINT LeftHandMiddle3
                      {
                        OFFSET 4.35652 -1e-06 4e-06
                        CHANNELS 3 Zrotation Yrotation Xrotation
                        JOINT LeftHandMiddle4
                        {
                          OFFSET 2.996877 0.0 8e-06
                          CHANNELS 3 Zrotation Yrotation Xrotation
                          JOINT LeftHandMiddleEnd
                          {
                            OFFSET 2.323256 3e-06 -4e-06
                            CHANNELS 3 Zrotation Yrotation Xrotation
                          }
                        }
                      }
                    }
                  }
                  JOINT LeftHandRing1
                  {
                    OFFSET 2.882606 -0.309162 0.107445
                    CHANNELS 3 Zrotation Yrotation Xrotation
                    JOINT LeftHandRing2
                    {
                      OFFSET 6.033198 0.0 4e-06
                      CHANNELS 3 Zrotation Yrotation Xrotation
                      JOINT LeftHandRing3
                      {
                        OFFSET 4.350578 3e-06 0.0
                        CHANNELS 3 Zrotation Yrotation Xrotation
                        JOINT LeftHandRing4
                        {
                          OFFSET 2.651321 2e-06 -7e-06
                          CHANNELS 3 Zrotation Yrotation Xrotation
                          JOINT LeftHandRingEnd
                          {
                            OFFSET 1.937663 1e-06 -4e-06
                            CHANNELS 3 Zrotation Yrotation Xrotation
                          }
                        }
                      }
                    }
                  }
                  JOINT LeftHandPinky1
                  {
                    OFFSET 2.865315 -1.525436 0.575687
                    CHANNELS 3 Zrotation Yrotation Xrotation
                    JOINT LeftHandPinky2
                    {
                      OFFSET 5.54936 1e-06 -8e-06
                      CHANNELS 3 Zrotation Yrotation Xrotation
                      JOINT LeftHandPinky3
                      {
                        OFFSET 3.070974 0.0 -4e-06
                        CHANNELS 3 Zrotation Yrotation Xrotation
                        JOINT LeftHandPinky4
                        {
                          OFFSET 1.549672 1e-06 0.0
                          CHANNELS 3 Zrotation Yrotation Xrotation
                          JOINT LeftHandPinkyEnd
                          {
                            OFFSET 1.952123 0.0 0.0
                            CHANNELS 3 Zrotation Yrotation Xrotation
                          }
                        }
                      }
                    }
                  }
                }
              }
            }
          }
          JOINT RightShoulder
          {
            OFFSET 23.161716 5.296122 -1.380114
            CHANNELS 3 Zrotation Yrotation Xrotation
            JOINT RightArm
            {
              OFFSET -16.027195 -2e-06 1.1e-05
              CHANNELS 3 Zrotation Yrotation Xrotation
              JOINT RightForeArm
              {
                OFFSET -28.736639 4e-06 2e-06
                CHANNELS 3 Zrotation Yrotation Xrotation
                JOINT RightHand
                {
                  OFFSET -27.133619 6e-06 0.0
                  CHANNELS 3 Zrotation Yrotation Xrotation
                  JOINT RightHandThumb1
                  {
                    OFFSET -2.274328 -3.351035 -0.83067
                    CHANNELS 3 Zrotation Yrotation Xrotation
                    JOINT RightHandThumb2
                    {
                      OFFSET -4.703594 -3e-06 2e-06
                      CHANNELS 3 Zrotation Yrotation Xrotation
                      JOINT RightHandThumb3
                      {
                        OFFSET -2.794935 -4e-06 -3e-06
                        CHANNELS 3 Zrotation Yrotation Xrotation
                        JOINT RightHandThumbEnd
                        {
                          OFFSET -3.183852 4e-06 1e-06
                          CHANNELS 3 Zrotation Yrotation Xrotation
                        }
                      }
                    }
                  }
                  JOINT RightHandIndex1
                  {
                    OFFSET -3.253496 -2.33755 -0.127667
                    CHANNELS 3 Zrotation Yrotation Xrotation
                    JOINT RightHandIndex2
                    {
                      OFFSET -6.344434 0.0 0.0
                      CHANNELS 3 Zrotation Yrotation Xrotation
                      JOINT RightHandIndex3
                      {
                        OFFSET -3.654871 0.0 -8e-06
                        CHANNELS 3 Zrotation Yrotation Xrotation
                        JOINT RightHandIndex4
                        {
                          OFFSET -2.327586 -1e-06 0.0
                          CHANNELS 3 Zrotation Yrotation Xrotation
                          JOINT RightHandIndexEnd
                          {
                            OFFSET -2.770001 3e-06 8e-06
                            CHANNELS 3 Zrotation Yrotation Xrotation
                          }
                        }
                      }
                    }
                  }
                  JOINT RightHandMiddle1
                  {
                    OFFSET -3.168223 -0.944764 0.411762
                    CHANNELS 3 Zrotation Yrotation Xrotation
                    JOINT RightHandMiddle2
                    {
                      OFFSET -6.266691 -1e-06 -4e-06
                      CHANNELS 3 Zrotation Yrotation Xrotation
                      JOINT RightHandMiddle3
                      {
                        OFFSET -4.348901 0.0 0.0
                        CHANNELS 3 Zrotation Yrotation Xrotation
                        JOINT RightHandMiddle4
                        {
                          OFFSET -3.00024 2e-06 -4e-06
                          CHANNELS 3 Zrotation Yrotation Xrotation
                          JOINT RightHandMiddleEnd
                          {
                            OFFSET -2.321477 -4e-06 -4e-06
                            CHANNELS 3 Zrotation Yrotation Xrotation
                          }
                        }
                      }
                    }
                  }
                  JOINT RightHandRing1
                  {
                    OFFSET -2.885654 0.293261 -0.119232
                    CHANNELS 3 Zrotation Yrotation Xrotation
                    JOINT RightHandRing2
                    {
                      OFFSET -6.032835 -1e-06 -4e-06
                      CHANNELS 3 Zrotation Yrotation Xrotation
                      JOINT RightHandRing3
                      {
                        OFFSET -4.33881 0.0 -4e-06
                        CHANNELS 3 Zrotation Yrotation Xrotation
                        JOINT RightHandRing4
                        {
                          OFFSET -2.654903 -4e-06 -4e-06
                          CHANNELS 3 Zrotation Yrotation Xrotation
                          JOINT RightHandRingEnd
                          {
                            OFFSET -1.935122 0.0 4e-06
                            CHANNELS 3 Zrotation Yrotation Xrotation
                          }
                        }
                      }
                    }
                  }
                  JOINT RightHandPinky1
                  {
                    OFFSET -2.866241 1.503904 -0.60527
                    CHANNELS 3 Zrotation Yrotation Xrotation
                    JOINT RightHandPinky2
                    {
                      OFFSET -5.553177 -2e-06 0.0
                      CHANNELS 3 Zrotation Yrotation Xrotation
                      JOINT RightHandPinky3
                      {
                        OFFSET -3.062664 -1e-06 -4e-06
                        CHANNELS 3 Zrotation Yrotation Xrotation
                        JOINT RightHandPinky4
                        {
                          OFFSET -1.546529 2e-06 4e-06
                          CHANNELS 3 Zrotation Yrotation Xrotation
                          JOINT RightHandPinkyEnd
                          {
                            OFFSET -1.952341 0.0 -4e-06
                            CHANNELS 3 Zrotation Yrotation Xrotation
                          }
                        }
                      }
                    }
                  }
                }
              }
            }
          }
        }
      }
    }
    JOINT LeftLeg
    {
      OFFSET -8.443107 2.567604 10.043214
      CHANNELS 3 Zrotation Yrotation Xrotation
      JOINT LeftShin
      {
        OFFSET 43.229198 1e-06 -1e-06
        CHANNELS 3 Zrotation Yrotation Xrotation
        JOINT LeftFoot
        {
          OFFSET 42.298611 1e-06 1e-06
          CHANNELS 3 Zrotation Yrotation Xrotation
          JOINT LeftToeBase
          {
            OFFSET 14.165858 1e-06 0.0
            CHANNELS 3 Zrotation Yrotation Xrotation
            JOINT LeftToeEnd
            {
              OFFSET 6.7141 -0.234461 0.0
              CHANNELS 3 Zrotation Yrotation Xrotation
            }
          }
        }
      }
    }
    JOINT RightLeg
    {
      OFFSET -8.303923 2.592729 -10.047278
      CHANNELS 3 Zrotation Yrotation Xrotation
      JOINT RightShin
      {
        OFFSET -43.369682 0.0 1e-06
        CHANNELS 3 Zrotation Yrotation Xrotation
        JOINT RightFoot
        {
          OFFSET -42.260784 4e-06 2e-06
          CHANNELS 3 Zrotation Yrotation Xrotation
          JOINT RightToeBase
          {
            OFFSET -14.222245 -2e-06 -1e-06
            CHANNELS 3 Zrotation Yrotation Xrotation
            JOINT RightToeEnd
            {
              OFFSET -6.660062 0.232574 -2e-06
              CHANNELS 3 Zrotation Yrotation Xrotation
            }
          }
        }
      }
    }
  }
}
MOTION
Frames: 4
Frame Time: 0.03333333333333333
0.0 0.0 0.0 0.0 -0.0 0.0 -3.524436 99.469002 5.099732 91.331917 0.17201 89.021217 -4.433831 0.714784 -0.136076 -12.003383 -0.292579 0.274358 4.986179 -2.307858 -3.064068 -11.295364 -6.874874 5.707933 -2.473663 -0.240635 0.105149 -19.208359 0.365009 -3.159899 6e-06 -0.0 0.0 -0.074231 0.02055 -0.060435 0.701799 0.186526 0.088002 0.702948 -0.157397 -0.183206 -43.835495 -74.837608 48.091606 -12.354149 28.601885 -73.569946 41.576023 -1.722407 -1.032392 -5.680727 22.331831 -17.857565 17.636629 -26.322735 52.411198 -19.46666 -14.3956 29.410389 -1e-06 -8.774821 -2e-06 17.214643 -17.270008 5.213891 -0.609777 -1.795655 -3.889328 -4.807089 -11.046808 -2.93785 5e-06 -20.976015 -0.0 -5.019971 -25.033556 -4.03188 6e-06 1e-06 1e-06 -10.634535 -5.68697 -3.565587 10.573275 -17.922951 -3.1139 3e-06 -13.821209 2e-06 -0.501779 -31.181505 -4.027014 -13.139847 -59.298828 9.039476 -13.982714 -7.150198 -2.875041 13.772729 -8.401491 -3.218241 0.347732 -34.211555 0.771657 -0.963029 -17.73337 2.621021 -0.0 0.0 -0.0 -17.34642 -20.095217 -4.201782 21.757559 -1.638375 3.866428 2e-06 -6.338822 1e-06 -1.697591 -22.591743 -6.194004 -0.0 -3e-06 -2e-06 166.766312 -70.061348 12.867046 -9.265237 15.348454 -61.107197 48.41782 -0.946413 0.980007 -12.770481 20.75153 -9.632436 22.182117 -20.375898 49.933327 -16.701813 -16.74353 28.476532 -2e-06 -12.690601 1e-06 16.086143 -16.198423 2.298168 -0.10592 -1.513856 -4.275881 -5.039042 -5.612872 -2.953557 1e-06 -11.020525 -2e-06 -6.111302 -15.895334 -3.840469 -1e-06 0.0 0.0 -10.283373 -5.68029 -4.341839 11.028296 -11.302404 -2.372633 -1.384272 -14.238583 -6.32012 -0.625439 -26.924194 -3.8276 -4.843415 -49.489326 -3.442836 -13.708526 -7.363479 -3.72094 18.141151 -14.052739 -3.242674 5e-06 -18.78727 -0.0 -0.429711 -8.456045 2.555503 0.0 -2e-06 0.0 -15.923536 -20.094484 -5.473583 30.419214 -7.190824 1.735928 2e-06 -8.162927 -1e-06 -1.861905 -22.861471 -6.167942 1e-06 -5e-06 -1e-06 -170.581482 -2.62387 -23.454086 7.448246 -0.079848 0.312796 -79.097618 1.440555 -8.022525 -5.175229 1.638636 2.272208 -0.999999 -1e-06 0.0 9.558246 -4.289042 -18.327532 7.828431 -0.008104 -0.087201 -82.423576 5.901126 -3.26902 -4.56092 0.634685 1.684752 -1.000001 -0.0 0.0 
0.0 0.0 0.0 0.0 -0.0 0.0 -3.575251 99.459908 5.173795 91.306953 0.175299 89.006775 -4.443313 0.733094 -0.124311 -12.025389 -0.268269 0.293662 4.933159 -2.333052 -3.038119 -11.229458 -6.885683 5.690425 -2.470734 -0.288407 0.014652 -19.188501 0.198548 -3.145019 7e-06 0.0 -0.0 -0.071963 0.031863 -0.052589 0.705538 0.204506 0.093273 0.70156 -0.152766 -0.171961 -43.537922 -74.732361 47.667828 -12.42071 29.021994 -73.734283 41.109608 -1.614037 -0.999807 -5.743526 22.125914 -17.948065 17.636635 -26.322737 52.411186 -19.466661 -14.395597 29.410385 -0.0 -8.774821 -2e-06 17.217083 -17.263454 5.237435 -0.609777 -1.795654 -3.889328 -4.807087 -11.046809 -2.93785 6e-06 -20.976015 0.0 -5.019972 -25.033556 -4.031878 7e-06 1e-06 0.0 -10.634533 -5.68697 -3.565588 10.573272 -17.922949 -3.113899 3e-06 -13.821208 2e-06 -0.501779 -31.181501 -4.027012 -13.082493 -59.263142 9.031454 -13.982714 -7.150198 -2.875041 13.77273 -8.401493 -3.218241 0.347732 -34.211555 0.771657 -0.96303 -17.733376 2.621021 -0.0 -0.0 -0.0 -17.346416 -20.095217 -4.20178 21.757557 -1.638375 3.866427 1e-06 -6.338824 1e-06 -1.697589 -22.591745 -6.194005 -0.0 -5e-06 -2e-06 166.839035 -69.937454 12.638773 -9.384035 15.953551 -61.15332 47.89661 -0.94212 0.887864 -12.539433 20.633057 -9.179706 22.182123 -20.375898 49.933308 -16.701811 -16.743528 28.476522 -3e-06 -12.6906 -1e-06 16.069014 -16.24367 2.323935 -0.10592 -1.513857 -4.275881 -5.039041 -5.612871 -2.953555 4e-06 -11.020525 -2e-06 -6.111301 -15.895334 -3.840467 0.0 -0.0 0.0 -10.283371 -5.680288 -4.341837 11.028296 -11.302406 -2.372632 -1.384269 -14.238581 -6.320119 -0.62544 -26.924191 -3.827597 -4.851059 -49.539494 -3.454627 -13.708525 -7.363476 -3.72094 18.14115 -14.05274 -3.242672 6e-06 -18.78727 1e-06 -0.429711 -8.456047 2.555505 1e-06 -2e-06 -0.0 -15.923536 -20.094482 -5.473585 30.419214 -7.190829 1.735929 3e-06 -8.162928 -1e-06 -1.861902 -22.861479 -6.167942 1e-06 -4e-06 -1e-06 -170.493759 -2.680833 -23.435169 7.407855 -0.0812 0.311958 -79.083412 1.450191 -8.03218 -5.183897 1.636873 2.269462 -1.0 -0.0 -0.0 9.661452 -4.217086 -18.415016 7.742338 -0.010548 -0.084521 -82.401863 5.94867 -3.159365 -4.61183 0.634151 1.681363 -1.000003 1e-06 0.0 
0.0 0.0 0.0 0.0 -0.0 0.0 -3.618953 99.451775 5.2485 91.295509 0.16163 89.019417 -4.455586 0.745387 -0.124387 -12.061185 -0.254205 0.317954 4.886539 -2.348164 -3.008414 -11.117739 -6.8707 5.659053 -2.464137 -0.333569 -0.033608 -19.238512 -0.025587 -3.112399 7e-06 0.0 0.0 -0.067101 0.045893 -0.043031 0.713012 0.224183 0.102149 0.70393 -0.144402 -0.161592 -43.203735 -74.63768 47.206059 -12.448069 29.391401 -73.931038 40.669285 -1.487785 -0.911782 -5.808046 21.903463 -18.029196 17.636631 -26.322735 52.411205 -19.466658 -14.395598 29.410389 -1e-06 -8.774821 -3e-06 17.208344 -17.246975 5.264767 -0.609776 -1.795654 -3.889328 -4.807089 -11.046809 -2.937849 5e-06 -20.976017 -0.0 -5.019973 -25.03356 -4.031878 7e-06 2e-06 -1e-06 -10.634535 -5.686971 -3.565588 10.573275 -17.922951 -3.113901 3e-06 -13.821211 2e-06 -0.50178 -31.181505 -4.027014 -13.019043 -59.174541 9.018204 -13.982714 -7.150198 -2.875042 13.772728 -8.401491 -3.21824 0.347733 -34.211555 0.771656 -0.963029 -17.733368 2.621021 -0.0 -1e-06 0.0 -17.346416 -20.095217 -4.201783 21.757557 -1.638375 3.866428 2e-06 -6.338824 1e-06 -1.697589 -22.591742 -6.194007 -0.0 -3e-06 -2e-06 166.975449 -69.857864 12.415959 -9.53801 16.557459 -61.22271 47.372124 -0.91983 0.813721 -12.336145 20.591206 -8.815622 22.182116 -20.3759 49.933323 -16.701813 -16.74353 28.476532 -3e-06 -12.690605 1e-06 16.106869 -16.298859 2.32736 -0.10592 -1.513855 -4.275881 -5.039039 -5.61287 -2.953556 3e-06 -11.020523 -1e-06 -6.1113 -15.895332 -3.84047 -1e-06 -0.0 0.0 -10.283371 -5.680288 -4.341838 11.028294 -11.302404 -2.372635 -1.384269 -14.238581 -6.32012 -0.625439 -26.924187 -3.8276 -4.880933 -49.649162 -3.424347 -13.708525 -7.363476 -3.720939 18.141148 -14.052739 -3.242674 6e-06 -18.787268 0.0 -0.429711 -8.456042 2.555504 1e-06 -2e-06 -0.0 -15.923536 -20.094482 -5.473586 30.41921 -7.190827 1.735926 3e-06 -8.162927 -1e-06 -1.861904 -22.861473 -6.167942 0.0 -4e-06 -1e-06 -170.453964 -2.736986 -23.37141 7.417715 -0.079731 0.301291 -79.077721 1.459788 -8.010235 -5.190402 1.629945 2.265349 -1.0 0.0 -0.0 9.748728 -4.162849 -18.575598 7.660131 -0.013739 -0.079351 -82.385719 6.033685 -3.072934 -4.643519 0.633674 1.677671 -1.000001 0.0 0.0 
0.0 0.0 0.0 0.0 -0.0 0.0 -3.654074 99.450211 5.326468 91.310768 0.136121 89.039009 -4.466043 0.744646 -0.141502 -12.093147 -0.258322 0.332788 4.838005 -2.35671 -2.966726 -11.008838 -6.8346 5.660397 -2.460017 -0.379596 -0.091543 -19.314938 -0.267438 -3.051132 6e-06 0.0 0.0 -0.063011 0.054586 -0.037871 0.712224 0.236257 0.10659 0.701377 -0.139275 -0.156497 -42.820187 -74.530037 46.685963 -12.487052 29.663113 -74.225136 40.314133 -1.372583 -0.81168 -5.829128 21.673897 -18.020763 17.636633 -26.322733 52.411182 -19.46666 -14.395598 29.410381 -1e-06 -8.774821 -2e-06 17.231939 -17.241678 5.282557 -0.609776 -1.795654 -3.889327 -4.807088 -11.046809 -2.937849 6e-06 -20.976015 1e-06 -5.019973 -25.033556 -4.031877 7e-06 0.0 0.0 -10.634533 -5.686971 -3.565586 10.573271 -17.922949 -3.113899 3e-06 -13.821206 2e-06 -0.501779 -31.181494 -4.027012 -13.014049 -59.108555 9.03576 -13.982712 -7.150198 -2.875041 13.77273 -8.401493 -3.21824 0.347735 -34.211555 0.771656 -0.963028 -17.733368 2.621021 0.0 -1e-06 0.0 -17.346416 -20.095213 -4.201779 21.757557 -1.638376 3.866428 2e-06 -6.338823 1e-06 -1.69759 -22.591745 -6.194004 -0.0 -3e-06 -2e-06 167.248657 -69.809189 12.088586 -9.740192 17.163263 -61.367207 46.843719 -0.934787 0.77615 -12.18066 20.618223 -8.466188 22.182116 -20.3759 49.933323 -16.701815 -16.743528 28.476532 -5e-06 -12.690605 2e-06 16.179543 -16.358803 2.316565 -0.105919 -1.513856 -4.275882 -5.03904 -5.612871 -2.953556 4e-06 -11.020526 -1e-06 -6.1113 -15.895334 -3.84047 -1e-06 -0.0 0.0 -10.283371 -5.680288 -4.341836 11.028296 -11.302407 -2.372634 -1.384268 -14.238583 -6.320121 -0.625434 -26.924189 -3.827602 -4.929734 -49.775539 -3.368268 -13.708527 -7.363476 -3.720938 18.141153 -14.052742 -3.242676 7e-06 -18.78727 -1e-06 -0.429712 -8.456047 2.555504 0.0 -2e-06 1e-06 -15.923536 -20.094484 -5.473584 30.419222 -7.190829 1.735925 3e-06 -8.162929 1e-06 -1.861905 -22.861473 -6.167942 1e-06 -4e-06 -1e-06 -170.441055 -2.765404 -23.323572 7.448103 -0.076346 0.289489 -79.037033 1.48362 -7.994514 -5.201567 1.622455 2.265372 -0.999997 -1e-06 0.0 9.819829 -4.12914 -18.776169 7.586899 -0.01367 -0.079825 -82.368706 6.151682 -2.997195 -4.636006 0.630546 1.673509 -1.000002 0.0 -0.0 
